HIERARCHY
ROOT hip
{
	OFFSET 0.000000 0.000000 0.000000 
	CHANNELS 6 Xposition Yposition Zposition Xrotation Zrotation Yrotation
	JOINT abdomen
	{
		OFFSET 0.000000 3.402643 0.000000 
		CHANNELS 3 Xrotation Zrotation Yrotation
		JOINT chest
		{
			OFFSET 0.000000 8.438565 -0.680529 
			CHANNELS 3 Xrotation Zrotation Yrotation
			JOINT neck
			{
				OFFSET 0.000000 10.207942 -0.272212 
				CHANNELS 3 Xrotation Zrotation Yrotation
				JOINT head
				{
					OFFSET 0.000000 3.130431 0.000000 
					CHANNELS 3 Xrotation Zrotation Yrotation
					End Site
					{
						OFFSET 0.000000 3.130435 0.000000 
					}
				}
			}
			JOINT lCollar
			{
				OFFSET 3.470700 6.669187 -0.816635 
				CHANNELS 3 Yrotation Zrotation Xrotation
				JOINT lShldr
				{
					OFFSET 3.198488 0.000000 0.000000 
					CHANNELS 3 Zrotation Yrotation Xrotation
					JOINT lForeArm
					{
						OFFSET 10.139888 0.000000 0.000000 
						CHANNELS 3 Yrotation Zrotation Xrotation
						JOINT lHand
						{
							OFFSET 8.370511 0.000000 0.000000 
							CHANNELS 3 Zrotation Yrotation Xrotation
							End Site
							{
								OFFSET 4.083176 0.000000 0.000000 
							}
						}
					}
				}
			}
			JOINT rCollar
			{
				OFFSET -3.470700 6.669187 -0.816635 
				CHANNELS 3 Yrotation Zrotation Xrotation
				JOINT rShldr
				{
					OFFSET -3.198488 0.000000 0.000000 
					CHANNELS 3 Zrotation Yrotation Xrotation
					JOINT rForeArm
					{
						OFFSET -10.139888 0.000000 0.000000 
						CHANNELS 3 Yrotation Zrotation Xrotation
						JOINT rHand
						{
							OFFSET -8.370511 0.000000 0.000000 
							CHANNELS 3 Zrotation Yrotation Xrotation
							End Site
							{
								OFFSET -4.083176 0.000000 0.000000 
							}
						}
					}
				}
			}
		}
	}
	JOINT lThigh
	{
		OFFSET 5.308129 -1.633274 1.361059 
		CHANNELS 3 Xrotation Zrotation Yrotation
		JOINT lShin
		{
			OFFSET -2.041588 -20.007561 0.000000 
			CHANNELS 3 Xrotation Zrotation Yrotation
			JOINT lFoot
			{
				OFFSET 0.000000 -19.190928 -1.224953 
				CHANNELS 3 Xrotation Yrotation Zrotation
				End Site
				{
					OFFSET 0.000000 -2.449906 4.627600 
				}
			}
		}
	}
	JOINT rThigh
	{
		OFFSET -5.308129 -1.633274 1.361059 
		CHANNELS 3 Xrotation Zrotation Yrotation
		JOINT rShin
		{
			OFFSET 2.041588 -20.007561 0.000000 
			CHANNELS 3 Xrotation Zrotation Yrotation
			JOINT rFoot
			{
				OFFSET 0.000000 -19.190928 -1.224953 
				CHANNELS 3 Xrotation Yrotation Zrotation
				End Site
				{
					OFFSET 0.000000 -2.449906 4.627600 
				}
			}
		}
	}
}
MOTION
Frames: 11
Frame Time: 0.016667
0.004952 45.928516 0.332900 2.519980 1.082940 -2.286150 -21.324100 -0.584439 -1.113670 18.476400 0.780735 -0.633824 13.081000 5.015690 -2.596960 11.381900 7.171890 -1.114630 2.000000 -2.000000 0.000000 -89.643402 -0.579376 153.126007 20.146700 -0.343199 0.047149 0.045190 -0.013358 -141.697006 -2.000000 2.000000 0.000000 83.249802 -3.558450 169.229996 -25.840099 0.337895 0.059592 -0.056690 -0.017260 -127.224998 -6.779708 -2.892096 -9.184626 21.307995 3.101066 1.560032 -15.137724 21.535299 5.577958 -7.879224 7.492974 19.919283 21.270004 -2.701055 -1.707456 -10.887188 -0.302023 0.338956 
-0.069186 45.895782 0.365116 2.510250 1.121970 -1.981880 -21.246901 -0.567252 -0.984379 18.583799 0.683189 -0.570405 13.171100 4.633990 -2.209690 11.350300 7.056190 -0.918272 2.000000 -2.000000 0.000000 -89.507599 -0.528711 153.985001 20.908400 -0.342562 0.048851 0.045441 -0.016081 -142.673996 -2.000000 2.000000 0.000000 83.347397 -3.509370 169.121994 -25.752199 0.337986 0.059403 -0.056878 -0.018337 -126.834000 -6.887844 -2.696943 -8.618129 21.446066 3.109934 1.589628 -14.955838 20.523643 5.261966 -7.998235 7.639308 19.965591 21.674974 -2.697242 -1.729652 -11.083886 -0.624929 0.287452 
-0.147041 45.834423 0.398462 2.363690 1.063550 -1.625850 -21.150299 -0.514759 -0.816555 18.642500 0.556330 -0.477576 13.555100 4.185810 -1.662020 11.416900 6.929070 -0.662427 2.000000 -2.000000 0.000000 -89.351898 -0.429901 154.522003 21.748301 -0.341833 0.050718 0.045657 -0.018093 -143.395996 -2.000000 2.000000 0.000000 83.416000 -3.764400 169.600006 -25.937799 0.337793 0.059802 -0.056443 -0.015776 -127.762001 -6.998827 -2.266557 -7.398477 22.054771 3.138775 1.616765 -15.134045 18.668230 4.777952 -7.984840 7.873598 19.807943 22.137772 -2.705857 -1.762880 -11.454409 -0.836643 0.201886 
-0.237834 45.734253 0.423498 2.295170 0.839170 -1.079510 -21.092100 -0.409907 -0.731601 18.642500 0.429448 -0.424508 14.367400 3.729110 -0.874137 11.641500 6.837920 -0.295349 2.000000 -2.000000 0.000000 -89.196198 -0.311618 155.029999 22.471001 -0.341184 0.052315 0.045844 -0.019668 -143.962997 -2.000000 2.000000 0.000000 83.425903 -4.048150 169.834000 -26.211201 0.337506 0.060388 -0.056562 -0.016505 -127.498001 -7.583278 -1.398072 -4.928568 23.359970 3.135603 1.699093 -14.880237 15.649785 3.879932 -8.076693 8.283586 19.609274 22.755718 -2.658513 -1.823082 -12.046326 -1.177822 0.068927 
-0.302494 45.622879 0.438323 2.080190 0.605070 -0.466202 -20.965900 -0.368789 -0.538499 18.652300 0.117123 -0.316394 15.100700 3.107210 -0.165091 11.805000 6.631720 0.057014 2.000000 -2.000000 0.000000 -88.962502 -0.085653 155.654007 23.555000 -0.340173 0.054696 0.046323 -0.023218 -145.242004 -2.000000 2.000000 0.000000 83.553001 -4.097580 170.087997 -26.084299 0.337640 0.060116 -0.056658 -0.017071 -127.292999 -8.676178 -0.514713 -2.651645 25.709152 3.063757 1.871186 -14.601644 12.505461 3.004304 -8.180075 8.603050 18.615456 23.454636 -2.664221 -1.861709 -12.480179 -0.833235 0.109271 
-0.380294 45.496815 0.390179 1.738290 -0.146417 0.513110 -20.731701 -0.171450 -0.457219 18.515600 -0.283023 -0.243820 15.985100 3.002190 0.431463 12.099900 6.626400 0.355633 2.000000 -2.000000 0.000000 -88.611801 -0.034737 156.610992 24.424101 -0.339330 0.056591 0.046702 -0.025678 -146.130997 -2.000000 2.000000 0.000000 83.601997 -4.157070 170.468994 -26.181900 0.337537 0.060325 -0.056491 -0.016073 -127.653999 -10.614381 0.988559 -0.635433 29.601105 2.976715 2.152886 -14.380063 9.452542 2.164293 -7.994016 9.359406 17.424124 23.677887 -2.618382 -1.907932 -12.764821 -0.570054 0.111178 
-0.455011 45.402325 0.378119 1.337900 -0.224548 1.615810 -20.526800 -0.150876 -0.402353 18.359301 -0.380579 -0.210007 16.738100 3.095770 1.039280 12.287600 6.671260 0.647684 2.000000 -2.000000 0.000000 -88.358498 0.054504 157.225998 25.010000 -0.338745 0.057861 0.047038 -0.027673 -146.852997 -2.000000 2.000000 0.000000 83.465698 -4.384300 171.580994 -26.416300 0.337289 0.060826 -0.056118 -0.013668 -128.522995 -12.513176 1.793195 1.388631 33.652145 2.775846 2.440298 -12.764256 7.216645 1.469938 -7.916620 9.519239 16.442989 24.346346 -2.625826 -1.937837 -13.155316 -0.560539 0.048661 
-0.531016 45.352955 0.389605 0.947286 -0.371043 3.040680 -20.282801 -0.102822 -0.357638 18.300699 -0.517177 -0.174940 17.637300 3.247500 1.553250 12.553900 6.714470 0.910106 2.000000 -2.000000 0.000000 -88.182800 -0.033214 157.304993 25.068600 -0.338686 0.057987 0.047006 -0.027484 -146.785004 -2.000000 2.000000 0.000000 83.397499 -4.394730 171.865005 -25.869400 0.337864 0.059655 -0.056562 -0.016505 -127.498001 -14.735795 2.639362 2.519649 37.980812 2.550767 2.737618 -10.379125 5.656997 1.057384 -7.520195 9.809350 15.996760 24.473303 -2.636361 -1.947588 -13.743196 -1.200098 -0.190731 
-0.571790 45.343662 0.463436 0.517589 -0.371079 3.854010 -19.990200 0.024103 -0.019159 18.408100 -0.653837 0.004997 18.798000 3.363080 2.293960 12.900000 6.804130 1.267740 2.000000 -2.000000 0.000000 -88.084999 -0.101917 157.149002 24.873301 -0.338883 0.057565 0.046706 -0.025704 -146.139999 -2.000000 2.000000 0.000000 -96.748901 -175.507004 -7.930650 -25.449499 0.338298 0.058752 -0.056759 -0.017664 -127.078003 -16.734413 3.313464 3.474827 41.997276 2.329600 2.981889 -7.693370 4.964065 0.914182 -6.864165 9.875759 15.774826 24.361008 -2.667160 -1.926035 -14.112674 -1.651855 -0.324048 
-0.594810 45.362492 0.552036 0.380863 -0.234370 4.890980 -19.765499 0.068581 0.182888 18.515499 -0.712438 0.113279 19.978800 3.059090 3.252780 13.292900 6.776650 1.761240 2.000000 -2.000000 0.000000 -88.104202 0.024285 156.807007 24.717100 -0.339039 0.057226 0.046849 -0.026568 -146.453003 -2.000000 2.000000 0.000000 -96.875801 -175.427994 -7.598810 -25.254200 0.338498 0.058331 -0.056778 -0.017772 -127.039001 -18.797014 3.777340 4.156169 45.125404 2.155708 3.187584 -5.940266 5.347929 0.904676 -6.517603 9.796140 15.102996 24.279585 -2.691181 -1.922507 -14.278817 -2.385914 -0.584143 
-0.600626 45.355919 0.689419 0.273438 0.009766 5.361370 -19.578699 0.199795 0.644045 18.603399 -0.683197 0.355329 21.077600 2.501200 4.269140 13.645200 6.692000 2.307310 2.000000 -2.000000 0.000000 -88.133400 0.326933 156.766998 24.492500 -0.339262 0.056739 0.047010 -0.027511 -146.794998 -2.000000 2.000000 0.000000 -97.070999 -175.369003 -7.266910 -25.068600 0.338686 0.057930 -0.056658 -0.017071 -127.292999 -20.179668 4.170121 5.523667 46.651772 2.015232 3.279192 -6.139977 4.414099 0.778339 -6.242646 9.679316 15.128432 24.405861 -2.704613 -1.923231 -14.557085 -3.035885 -0.827382 
